<?xml version="1.0" standalone="no"?>
<!DOCTYPE svg PUBLIC "-//W3C//DTD SVG 20010904//EN"
 "http://www.w3.org/TR/2001/REC-SVG-20010904/DTD/svg10.dtd">
<svg version="1.0" xmlns="http://www.w3.org/2000/svg"
 width="2048.000000pt" height="2048.000000pt" viewBox="0 0 2048.000000 2048.000000"
 preserveAspectRatio="xMidYMid meet">

<g transform="translate(0.000000,2048.000000) scale(0.100000,-0.100000)"
fill="#FFDF00" stroke="none">
<path d="M9865 20473 c-341 -13 -993 -72 -1023 -92 -5 -3 -140 -400 -301 -882
l-291 -875 -78 -18 c-116 -27 -340 -89 -507 -141 -627 -195 -1277 -486 -1839
-823 l-109 -65 -824 411 c-453 227 -827 412 -832 412 -13 0 -326 -250 -498
-397 -369 -317 -769 -717 -1086 -1086 -147 -172 -397 -485 -397 -498 0 -5 185
-379 411 -832 l412 -822 -21 -35 c-11 -19 -61 -105 -111 -190 -120 -203 -357
-677 -456 -910 -177 -418 -340 -904 -431 -1284 l-28 -116 -878 -292 c-584
-195 -880 -298 -883 -308 -8 -27 -44 -362 -60 -550 -44 -541 -46 -1102 -5
-1630 12 -152 58 -577 65 -600 3 -10 301 -114 883 -308 l878 -292 28 -116 c91
-380 254 -866 431 -1284 99 -233 336 -707 456 -910 50 -85 100 -171 111 -190
l21 -35 -412 -822 c-226 -453 -411 -827 -411 -832 0 -16 305 -392 463 -572
280 -320 623 -662 947 -947 178 -157 555 -462 571 -462 5 0 379 185 832 412
l824 411 109 -65 c531 -319 1139 -595 1739 -791 157 -51 490 -146 607 -173
l78 -18 291 -875 c161 -482 296 -879 301 -882 10 -7 243 -35 448 -54 593 -55
1209 -58 1795 -9 186 15 519 51 545 59 10 3 113 299 308 884 l293 879 37 6
c146 23 713 198 1017 313 458 172 983 426 1379 666 l99 60 824 -411 c453 -227
827 -412 832 -412 11 0 276 209 441 349 361 305 756 694 1076 1059 159 181
464 557 464 573 0 5 -185 379 -412 832 l-411 824 65 109 c427 711 785 1584
963 2346 l19 78 878 292 c584 195 880 298 883 308 7 26 43 358 59 550 47 558
47 1122 0 1680 -16 192 -52 524 -59 550 -3 10 -299 113 -883 308 l-878 292
-23 98 c-102 427 -299 997 -494 1433 -129 289 -307 631 -465 893 l-65 109 411
824 c227 453 412 827 412 832 0 16 -305 393 -464 574 -318 362 -718 755 -1076
1058 -165 140 -430 349 -441 349 -5 0 -379 -185 -832 -411 l-822 -412 -35 21
c-19 11 -105 61 -190 111 -331 195 -860 445 -1255 594 -304 115 -871 290
-1017 313 l-37 6 -293 879 c-195 585 -298 881 -308 884 -27 8 -362 44 -550 60
-373 30 -872 42 -1215 28z m715 -3243 c576 -30 1103 -119 1635 -275 2172 -638
3912 -2304 4648 -4451 426 -1243 490 -2616 181 -3904 -447 -1863 -1653 -3470
-3327 -4434 -905 -520 -1886 -820 -2977 -907 -332 -27 -916 -15 -1285 27
-2106 237 -3987 1415 -5127 3209 -896 1409 -1252 3083 -1013 4761 372 2608
2233 4815 4753 5638 800 261 1680 379 2512 336z"/>
</g>
</svg>
